<?xml version="1.0" encoding="UTF-8" standalone="no"?>
<svg
   xmlns:dc="http://purl.org/dc/elements/1.1/"
   xmlns:cc="http://creativecommons.org/ns#"
   xmlns:rdf="http://www.w3.org/1999/02/22-rdf-syntax-ns#"
   xmlns:svg="http://www.w3.org/2000/svg"
   xmlns="http://www.w3.org/2000/svg"
   viewBox="0 0 1019.0533 280.38666"
   height="280.38666"
   width="1019.0533"
   xml:space="preserve"
   id="svg2"
   version="1.1"><metadata
     id="metadata8"><rdf:RDF><cc:Work
         rdf:about=""><dc:format>image/svg+xml</dc:format><dc:type
           rdf:resource="http://purl.org/dc/dcmitype/StillImage" /></cc:Work></rdf:RDF></metadata><defs
     id="defs6"><clipPath
       id="clipPath20"
       clipPathUnits="userSpaceOnUse"><path
         id="path18"
         d="M 0,2102.93 V 0 h 7642.9 v 2102.93 z" /></clipPath></defs><g
     transform="matrix(1.3333333,0,0,-1.3333333,0,280.38667)"
     id="g10"><g
       transform="scale(0.1)"
       id="g12"><g
         id="g14"><g
           clip-path="url(#clipPath20)"
           id="g16"><path
             id="path22"
             style="fill:#ffffff;fill-opacity:1;fill-rule:nonzero;stroke:none"
             d="m 1392.06,5.23828 h 699.211 v 699.203 H 1392.06 Z" /><path
             id="path24"
             style="fill:#ffffff;fill-opacity:1;fill-rule:nonzero;stroke:none"
             d="m 694.023,699.648 h 699.168 v 699.23 H 694.023 Z" /><path
             id="path26"
             style="fill:#ffffff;fill-opacity:1;fill-rule:nonzero;stroke:none"
             d="m 1392.06,1401.5 h 699.211 v 699.086 H 1392.06 Z" /><path
             id="path28"
             style="fill:#ffffff;fill-opacity:1;fill-rule:nonzero;stroke:none"
             d="m 0,5.23828 h 699.184 v 699.203 H 0 Z" /><path
             id="path30"
             style="fill:#ffffff;fill-opacity:1;fill-rule:nonzero;stroke:none"
             d="m 0,1401.5 h 699.184 v 699.086 H 0 Z" /><path
             id="path32"
             style="fill:#ffffff;fill-opacity:1;fill-rule:nonzero;stroke:none"
             d="m 4050.73,1126.56 c -126.36,76.87 -266.27,128.44 -414.39,183.06 -29.02,10.67 -58.34,21.51 -87.93,32.66 -173.06,64.19 -260.82,134.73 -260.82,209.56 0,127.87 174.94,146.98 279.27,146.98 175.21,0 381.44,-62.98 649.01,-198.3 l 21.31,-10.75 v 443.51 l -8.3,4.01 c -226.24,109.64 -457.93,165.21 -688.47,165.21 -455.3,0 -773.3,-243.34 -773.3,-591.79 0,-383.39 268.04,-549.472 762.6,-721.948 186.96,-65.434 257.58,-100.184 257.58,-206.512 0,-109.148 -95.92,-164.531 -285.07,-164.531 -224.64,0 -433.28,100.109 -677.41,250.453 l -22.38,13.777 V 200.59 l 7.13,-4.27 C 3025.54,66.0703 3262.5,0 3513.94,0 c 506.31,0 808.55,228.641 808.55,611.66 0,230.668 -91.44,403.94 -271.76,514.9" /><path
             id="path34"
             style="fill:#ffffff;fill-opacity:1;fill-rule:nonzero;stroke:none"
             d="M 5062.28,891.828 H 5863.8 V 1294.8 h -801.52 v 374.95 h 839.62 v 399.36 H 4530.83 V 36.3281 H 5925.39 V 440.039 h -863.11 v 451.789" /><path
             id="path36"
             style="fill:#ffffff;fill-opacity:1;fill-rule:nonzero;stroke:none"
             d="m 7371.18,1126.56 c -126.54,76.95 -266.58,128.58 -414.83,183.23 -28.88,10.64 -58.07,21.4 -87.53,32.49 -173.07,64.19 -260.83,134.73 -260.83,209.56 0,127.87 174.99,146.98 279.31,146.98 175.21,0 381.5,-62.98 649.04,-198.3 l 21.35,-10.75 v 443.51 l -8.31,4.01 c -226.35,109.64 -458.02,165.21 -688.55,165.21 -455.31,0 -773.3,-243.34 -773.3,-591.79 0,-383.33 268.03,-549.472 762.57,-721.948 187.04,-65.461 257.69,-100.211 257.69,-206.512 0,-109.148 -95.97,-164.531 -285.21,-164.531 -224.55,0 -433.19,100.109 -677.38,250.453 l -22.36,13.777 V 200.59 l 7.11,-4.27 C 6345.99,66.0703 6582.95,0 6834.35,0 c 506.28,0 808.55,228.641 808.55,611.66 0,230.668 -91.37,403.88 -271.72,514.9" /><path
             id="path38"
             style="fill:#ffffff;fill-opacity:1;fill-rule:nonzero;stroke:none"
             d="m 2442.57,5.23828 h 29.3203 V 2102.9283 H 2442.57 Z" /></g></g></g></g></svg>